<mxfile host="app.diagrams.net" modified="2024-04-07T15:47:46.342Z" agent="Mozilla/5.0 (Macintosh; Intel Mac OS X 10_15_7) AppleWebKit/537.36 (KHTML, like Gecko) Chrome/122.0.0.0 Safari/537.36" etag="0UACiWbco5c45UDrrVVj" version="24.2.2" type="onedrive">
  <diagram name="Página-1" id="3tzgoBKtCzycP5uL6vk3">
    <mxGraphModel dx="1026" dy="685" grid="1" gridSize="10" guides="1" tooltips="1" connect="1" arrows="1" fold="1" page="1" pageScale="1" pageWidth="827" pageHeight="1169" math="0" shadow="0">
      <root>
        <mxCell id="0" />
        <mxCell id="1" parent="0" />
        <mxCell id="F5LolsfLSJLDMr82KRO7-1" value="Gerente" style="shape=umlActor;verticalLabelPosition=bottom;verticalAlign=top;html=1;outlineConnect=0;" vertex="1" parent="1">
          <mxGeometry x="100" y="555" width="30" height="55" as="geometry" />
        </mxCell>
        <mxCell id="F5LolsfLSJLDMr82KRO7-5" value="&lt;font style=&quot;font-size: 14px;&quot;&gt;Iniciar Sessão&lt;/font&gt;" style="ellipse;whiteSpace=wrap;html=1;" vertex="1" parent="1">
          <mxGeometry x="423" y="40" width="170" height="60" as="geometry" />
        </mxCell>
        <mxCell id="F5LolsfLSJLDMr82KRO7-6" value="&lt;font style=&quot;font-size: 14px;&quot;&gt;Encerrar Sessão&lt;/font&gt;" style="ellipse;whiteSpace=wrap;html=1;" vertex="1" parent="1">
          <mxGeometry x="417" y="110" width="176" height="60" as="geometry" />
        </mxCell>
        <mxCell id="F5LolsfLSJLDMr82KRO7-7" value="Criar Produto" style="ellipse;whiteSpace=wrap;html=1;" vertex="1" parent="1">
          <mxGeometry x="420" y="180" width="176" height="60" as="geometry" />
        </mxCell>
        <mxCell id="F5LolsfLSJLDMr82KRO7-12" value="Listar Produto" style="ellipse;whiteSpace=wrap;html=1;" vertex="1" parent="1">
          <mxGeometry x="420" y="250" width="176" height="60" as="geometry" />
        </mxCell>
        <mxCell id="F5LolsfLSJLDMr82KRO7-13" value="Ver Produto" style="ellipse;whiteSpace=wrap;html=1;" vertex="1" parent="1">
          <mxGeometry x="420" y="320" width="176" height="60" as="geometry" />
        </mxCell>
        <mxCell id="F5LolsfLSJLDMr82KRO7-14" value="Editar Produto" style="ellipse;whiteSpace=wrap;html=1;" vertex="1" parent="1">
          <mxGeometry x="417" y="390" width="176" height="60" as="geometry" />
        </mxCell>
        <mxCell id="F5LolsfLSJLDMr82KRO7-15" value="Eliminar Produto" style="ellipse;whiteSpace=wrap;html=1;" vertex="1" parent="1">
          <mxGeometry x="420" y="460" width="176" height="60" as="geometry" />
        </mxCell>
        <mxCell id="F5LolsfLSJLDMr82KRO7-16" value="Listar Clientes" style="ellipse;whiteSpace=wrap;html=1;" vertex="1" parent="1">
          <mxGeometry x="420" y="525" width="176" height="60" as="geometry" />
        </mxCell>
        <mxCell id="F5LolsfLSJLDMr82KRO7-17" value="Ver Clientes" style="ellipse;whiteSpace=wrap;html=1;" vertex="1" parent="1">
          <mxGeometry x="420" y="590" width="176" height="60" as="geometry" />
        </mxCell>
        <mxCell id="F5LolsfLSJLDMr82KRO7-18" value="Listar Encomendas do Cliente" style="ellipse;whiteSpace=wrap;html=1;" vertex="1" parent="1">
          <mxGeometry x="417" y="660" width="176" height="60" as="geometry" />
        </mxCell>
        <mxCell id="F5LolsfLSJLDMr82KRO7-19" value="Modificar Encomendas do Cliente" style="ellipse;whiteSpace=wrap;html=1;" vertex="1" parent="1">
          <mxGeometry x="417" y="800" width="176" height="60" as="geometry" />
        </mxCell>
        <mxCell id="F5LolsfLSJLDMr82KRO7-20" value="Ver Encomendas do Cliente" style="ellipse;whiteSpace=wrap;html=1;" vertex="1" parent="1">
          <mxGeometry x="420" y="730" width="176" height="60" as="geometry" />
        </mxCell>
        <mxCell id="F5LolsfLSJLDMr82KRO7-21" value="Adicionar Funcionários" style="ellipse;whiteSpace=wrap;html=1;" vertex="1" parent="1">
          <mxGeometry x="420" y="870" width="176" height="60" as="geometry" />
        </mxCell>
        <mxCell id="F5LolsfLSJLDMr82KRO7-22" value="Remover Funcionários" style="ellipse;whiteSpace=wrap;html=1;" vertex="1" parent="1">
          <mxGeometry x="423" y="1010" width="176" height="60" as="geometry" />
        </mxCell>
        <mxCell id="F5LolsfLSJLDMr82KRO7-23" value="Ver Funcionários" style="ellipse;whiteSpace=wrap;html=1;" vertex="1" parent="1">
          <mxGeometry x="423" y="940" width="176" height="60" as="geometry" />
        </mxCell>
        <mxCell id="F5LolsfLSJLDMr82KRO7-29" value="" style="endArrow=none;html=1;rounded=0;" edge="1" parent="1">
          <mxGeometry width="50" height="50" relative="1" as="geometry">
            <mxPoint x="140" y="580" as="sourcePoint" />
            <mxPoint x="420" y="70" as="targetPoint" />
          </mxGeometry>
        </mxCell>
        <mxCell id="F5LolsfLSJLDMr82KRO7-30" value="" style="endArrow=none;html=1;rounded=0;entryX=0;entryY=0.5;entryDx=0;entryDy=0;exitX=0;exitY=0.5;exitDx=0;exitDy=0;" edge="1" parent="1" source="F5LolsfLSJLDMr82KRO7-7" target="F5LolsfLSJLDMr82KRO7-6">
          <mxGeometry width="50" height="50" relative="1" as="geometry">
            <mxPoint x="390" y="380" as="sourcePoint" />
            <mxPoint x="440" y="330" as="targetPoint" />
            <Array as="points">
              <mxPoint x="140" y="580" />
            </Array>
          </mxGeometry>
        </mxCell>
        <mxCell id="F5LolsfLSJLDMr82KRO7-31" value="" style="endArrow=none;html=1;rounded=0;entryX=0;entryY=0.5;entryDx=0;entryDy=0;" edge="1" parent="1" target="F5LolsfLSJLDMr82KRO7-12">
          <mxGeometry width="50" height="50" relative="1" as="geometry">
            <mxPoint x="140" y="580" as="sourcePoint" />
            <mxPoint x="440" y="330" as="targetPoint" />
          </mxGeometry>
        </mxCell>
        <mxCell id="F5LolsfLSJLDMr82KRO7-32" value="" style="endArrow=none;html=1;rounded=0;entryX=0;entryY=0.5;entryDx=0;entryDy=0;" edge="1" parent="1" target="F5LolsfLSJLDMr82KRO7-13">
          <mxGeometry width="50" height="50" relative="1" as="geometry">
            <mxPoint x="140" y="580" as="sourcePoint" />
            <mxPoint x="440" y="330" as="targetPoint" />
          </mxGeometry>
        </mxCell>
        <mxCell id="F5LolsfLSJLDMr82KRO7-33" value="" style="endArrow=none;html=1;rounded=0;entryX=0;entryY=0.5;entryDx=0;entryDy=0;" edge="1" parent="1" target="F5LolsfLSJLDMr82KRO7-14">
          <mxGeometry width="50" height="50" relative="1" as="geometry">
            <mxPoint x="140" y="580" as="sourcePoint" />
            <mxPoint x="440" y="620" as="targetPoint" />
          </mxGeometry>
        </mxCell>
        <mxCell id="F5LolsfLSJLDMr82KRO7-34" value="" style="endArrow=none;html=1;rounded=0;entryX=0;entryY=0.5;entryDx=0;entryDy=0;" edge="1" parent="1" target="F5LolsfLSJLDMr82KRO7-15">
          <mxGeometry width="50" height="50" relative="1" as="geometry">
            <mxPoint x="140" y="580" as="sourcePoint" />
            <mxPoint x="427" y="430" as="targetPoint" />
          </mxGeometry>
        </mxCell>
        <mxCell id="F5LolsfLSJLDMr82KRO7-35" value="" style="endArrow=none;html=1;rounded=0;entryX=0;entryY=0.5;entryDx=0;entryDy=0;" edge="1" parent="1" target="F5LolsfLSJLDMr82KRO7-16">
          <mxGeometry width="50" height="50" relative="1" as="geometry">
            <mxPoint x="140" y="580" as="sourcePoint" />
            <mxPoint x="410" y="560" as="targetPoint" />
          </mxGeometry>
        </mxCell>
        <mxCell id="F5LolsfLSJLDMr82KRO7-36" value="" style="endArrow=none;html=1;rounded=0;entryX=0;entryY=0.5;entryDx=0;entryDy=0;" edge="1" parent="1" target="F5LolsfLSJLDMr82KRO7-17">
          <mxGeometry width="50" height="50" relative="1" as="geometry">
            <mxPoint x="140" y="580" as="sourcePoint" />
            <mxPoint x="447" y="450" as="targetPoint" />
          </mxGeometry>
        </mxCell>
        <mxCell id="F5LolsfLSJLDMr82KRO7-37" value="" style="endArrow=none;html=1;rounded=0;entryX=0;entryY=0.5;entryDx=0;entryDy=0;" edge="1" parent="1" target="F5LolsfLSJLDMr82KRO7-18">
          <mxGeometry width="50" height="50" relative="1" as="geometry">
            <mxPoint x="150" y="580" as="sourcePoint" />
            <mxPoint x="457" y="460" as="targetPoint" />
          </mxGeometry>
        </mxCell>
        <mxCell id="F5LolsfLSJLDMr82KRO7-38" value="" style="endArrow=none;html=1;rounded=0;entryX=0;entryY=0.5;entryDx=0;entryDy=0;" edge="1" parent="1" target="F5LolsfLSJLDMr82KRO7-20">
          <mxGeometry width="50" height="50" relative="1" as="geometry">
            <mxPoint x="140" y="580" as="sourcePoint" />
            <mxPoint x="467" y="470" as="targetPoint" />
          </mxGeometry>
        </mxCell>
        <mxCell id="F5LolsfLSJLDMr82KRO7-40" value="" style="endArrow=none;html=1;rounded=0;entryX=0;entryY=0.5;entryDx=0;entryDy=0;" edge="1" parent="1" target="F5LolsfLSJLDMr82KRO7-21">
          <mxGeometry width="50" height="50" relative="1" as="geometry">
            <mxPoint x="140" y="580" as="sourcePoint" />
            <mxPoint x="487" y="490" as="targetPoint" />
          </mxGeometry>
        </mxCell>
        <mxCell id="F5LolsfLSJLDMr82KRO7-41" value="" style="endArrow=none;html=1;rounded=0;entryX=0;entryY=0.5;entryDx=0;entryDy=0;" edge="1" parent="1" target="F5LolsfLSJLDMr82KRO7-19">
          <mxGeometry width="50" height="50" relative="1" as="geometry">
            <mxPoint x="140" y="580" as="sourcePoint" />
            <mxPoint x="440" y="820" as="targetPoint" />
          </mxGeometry>
        </mxCell>
        <mxCell id="F5LolsfLSJLDMr82KRO7-42" value="" style="endArrow=none;html=1;rounded=0;entryX=0;entryY=0.5;entryDx=0;entryDy=0;" edge="1" parent="1" target="F5LolsfLSJLDMr82KRO7-23">
          <mxGeometry width="50" height="50" relative="1" as="geometry">
            <mxPoint x="140" y="580" as="sourcePoint" />
            <mxPoint x="440" y="820" as="targetPoint" />
          </mxGeometry>
        </mxCell>
        <mxCell id="F5LolsfLSJLDMr82KRO7-43" value="" style="endArrow=none;html=1;rounded=0;entryX=0;entryY=0.5;entryDx=0;entryDy=0;" edge="1" parent="1" target="F5LolsfLSJLDMr82KRO7-22">
          <mxGeometry width="50" height="50" relative="1" as="geometry">
            <mxPoint x="140" y="580" as="sourcePoint" />
            <mxPoint x="440" y="820" as="targetPoint" />
          </mxGeometry>
        </mxCell>
      </root>
    </mxGraphModel>
  </diagram>
</mxfile>
